<svg aria-hidden="true" style="position: absolute; width: 0; height: 0; overflow: hidden;" version="1.1" xmlns="http://www.w3.org/2000/svg" xmlns:xlink="http://www.w3.org/1999/xlink">
<defs>
<symbol id="icon-switch-horizontal-2" viewBox="0 0 32 32">
<path fill="none" stroke="#85aa9f" style="stroke: var(--color1, #85aa9f)" stroke-linejoin="round" stroke-linecap="round" stroke-miterlimit="4" stroke-width="2" d="M26.667 22.667h-21.333M5.333 22.667l5.333-5.333M5.333 22.667l5.333 5.333M5.333 9.333h21.333M26.667 9.333l-5.333-5.333M26.667 9.333l-5.333 5.333"></path>
</symbol>
<symbol id="icon-delete" viewBox="0 0 32 32">
<path fill="none" stroke="#85aa9f" style="stroke: var(--color1, #85aa9f)" stroke-linejoin="round" stroke-linecap="round" stroke-miterlimit="4" stroke-width="2.6" d="M4 8h24M25.334 8v18.666c0 0.001 0 0.001 0 0.002 0 1.472-1.194 2.666-2.666 2.666-0.001 0-0.001 0-0.002 0h-13.332c-0.001 0-0.001 0-0.002 0-1.472 0-2.666-1.194-2.666-2.666 0-0.001 0-0.001 0-0.002v0-18.666M10.666 8v-2.666c0-0.001 0-0.001 0-0.002 0-1.472 1.194-2.666 2.666-2.666 0.001 0 0.001 0 0.002 0h5.332c0.001 0 0.001 0 0.002 0 1.472 0 2.666 1.194 2.666 2.666 0 0.001 0 0.001 0 0.002v-0 2.666M13.334 14.666v8M18.666 14.666v8"></path>
</symbol>
<symbol id="icon-edit" viewBox="0 0 32 32">
<path fill="none" stroke="#85aa9f" style="stroke: var(--color1, #85aa9f)" stroke-linejoin="round" stroke-linecap="round" stroke-miterlimit="4" stroke-width="2.6" d="M22.666 4c0.683-0.683 1.625-1.105 2.667-1.105 2.083 0 3.772 1.689 3.772 3.772 0 1.042-0.422 1.984-1.105 2.667v0l-18 18-7.334 2 2-7.334 18-18z"></path>
</symbol>
<symbol id="icon-btn-popover" viewBox="0 0 102 32">
<path d="M17.088 27.29c-6.195 0-11.123-4.646-11.123-10.419v-0.704c0-5.632 4.928-10.278 11.123-10.278 6.054 0 11.264 4.646 11.264 10.278v0.704c0 5.773-5.21 10.419-11.264 10.419zM51.187 27.29c-6.195 0-11.123-4.646-11.123-10.419v-0.704c0-5.632 4.928-10.278 11.123-10.278 6.054 0 11.264 4.646 11.264 10.278v0.704c0 5.773-5.21 10.419-11.264 10.419zM85.286 27.29c-6.195 0-11.123-4.646-11.123-10.419v-0.704c0-5.632 4.928-10.278 11.123-10.278 6.054 0 11.264 4.646 11.264 10.278v0.704c0 5.773-5.21 10.419-11.264 10.419z"></path>
</symbol>
<symbol id="icon-switch-horizontal-1" viewBox="0 0 32 32">
<path fill="none" stroke="#85aa9f" style="stroke: var(--color1, #85aa9f)" stroke-linejoin="round" stroke-linecap="round" stroke-miterlimit="4" stroke-width="2.4" d="M5.333 16h21.334M26.667 16l-5.334-5.333M26.667 16l-5.334 5.333"></path>
</symbol>
<symbol id="icon-gridicons_user" viewBox="0 0 32 32">
<path fill="#fcfcfc" style="fill: var(--color2, #fcfcfc)" opacity="0.7" d="M16 5.333c2.946 0 5.333 2.388 5.333 5.333s-2.388 5.333-5.333 5.333v0c-2.946 0-5.333-2.388-5.333-5.333s2.388-5.333 5.333-5.333v0zM16 26.667s10.667 0 10.667-2.667c0-3.2-5.2-6.667-10.667-6.667s-10.667 3.467-10.667 6.667c0 2.667 10.667 2.667 10.667 2.667z"></path>
</symbol>
<symbol id="icon-united-kingdom" viewBox="0 0 32 32">
<path fill="#f0f0f0" style="fill: var(--color3, #f0f0f0)" d="M16 32c8.837 0 16-7.163 16-16s-7.163-16-16-16c-8.837 0-16 7.163-16 16s7.163 16 16 16z"></path>
<path fill="#0052b4" style="fill: var(--color4, #0052b4)" d="M3.308 6.259c-1.257 1.635-2.204 3.52-2.756 5.567h8.324l-5.567-5.567z"></path>
<path fill="#0052b4" style="fill: var(--color4, #0052b4)" d="M31.449 11.826c-0.552-2.047-1.5-3.932-2.756-5.567l-5.567 5.567h8.323z"></path>
<path fill="#0052b4" style="fill: var(--color4, #0052b4)" d="M0.551 20.174c0.552 2.047 1.5 3.932 2.756 5.567l5.567-5.567h-8.323z"></path>
<path fill="#0052b4" style="fill: var(--color4, #0052b4)" d="M25.741 3.308c-1.635-1.257-3.52-2.204-5.567-2.756v8.324l5.567-5.567z"></path>
<path fill="#0052b4" style="fill: var(--color4, #0052b4)" d="M6.259 28.692c1.635 1.257 3.52 2.204 5.567 2.756v-8.323l-5.567 5.567z"></path>
<path fill="#0052b4" style="fill: var(--color4, #0052b4)" d="M11.826 0.551c-2.047 0.552-3.932 1.5-5.567 2.756l5.567 5.567v-8.323z"></path>
<path fill="#0052b4" style="fill: var(--color4, #0052b4)" d="M20.174 31.449c2.047-0.552 3.932-1.5 5.567-2.756l-5.567-5.567v8.323z"></path>
<path fill="#0052b4" style="fill: var(--color4, #0052b4)" d="M23.125 20.174l5.567 5.567c1.257-1.635 2.204-3.52 2.756-5.567h-8.323z"></path>
<path fill="#d80027" style="fill: var(--color5, #d80027)" d="M31.865 13.913h-13.778v-13.778c-0.683-0.089-1.38-0.135-2.087-0.135s-1.404 0.046-2.087 0.135v13.778h-13.778c-0.089 0.683-0.135 1.38-0.135 2.087s0.046 1.404 0.135 2.087h13.778v13.778c0.683 0.089 1.38 0.135 2.087 0.135s1.404-0.046 2.087-0.135v-13.778h13.778c0.089-0.683 0.135-1.38 0.135-2.087s-0.047-1.404-0.135-2.087z"></path>
<path fill="#d80027" style="fill: var(--color5, #d80027)" d="M20.174 20.174l7.14 7.14c0.328-0.328 0.642-0.672 0.941-1.027l-6.113-6.113h-1.968z"></path>
<path fill="#d80027" style="fill: var(--color5, #d80027)" d="M11.826 20.174h-0l-7.14 7.14c0.328 0.328 0.671 0.642 1.027 0.941l6.113-6.113v-1.967z"></path>
<path fill="#d80027" style="fill: var(--color5, #d80027)" d="M11.826 11.826v-0l-7.14-7.14c-0.328 0.328-0.642 0.671-0.941 1.027l6.113 6.113h1.968z"></path>
<path fill="#d80027" style="fill: var(--color5, #d80027)" d="M20.174 11.826l7.14-7.14c-0.328-0.328-0.671-0.642-1.027-0.94l-6.113 6.113v1.968z"></path>
</symbol>
<symbol id="icon-ukraine" viewBox="0 0 32 32">
<path fill="#ffda44" style="fill: var(--color6, #ffda44)" d="M16 32c8.837 0 16-7.163 16-16s-7.163-16-16-16c-8.837 0-16 7.163-16 16s7.163 16 16 16z"></path>
<path fill="#338af3" style="fill: var(--color7, #338af3)" d="M0 16c0-8.836 7.163-16 16-16s16 7.163 16 16z"></path>
</symbol>

<symbol id="icon-plus" viewBox="0 0 32 32">
<path fill="none" stroke="#85aa9f" style="stroke: var(--color1, #85aa9f)" stroke-linejoin="round" stroke-linecap="round" stroke-miterlimit="4" stroke-width="2.4" d="M16 6.667v18.666M6.667 16h18.666"></path>
</symbol>
<symbol id="icon-toggle" viewBox="0 0 32 32">
<path d="M16 22.003l-10-10 1.4-1.4 8.6 8.6 8.6-8.6 1.4 1.4-10 10z"></path>
<path d="M16 22.003l-1.696 1.696 1.696 1.699 1.696-1.696-1.696-1.699zM6 12.003l-1.696-1.696-1.698 1.696 1.696 1.696 1.698-1.696zM7.4 10.603l1.696-1.696-1.696-1.698-1.696 1.696 1.696 1.698zM16 19.203l-1.696 1.696 1.696 1.699 1.696-1.696-1.696-1.699zM24.6 10.603l1.696-1.696-1.696-1.698-1.696 1.696 1.696 1.698zM26 12.003l1.696 1.696 1.698-1.696-1.696-1.696-1.698 1.696zM17.696 20.307l-10-10-3.392 3.392 10 10 3.392-3.392zM7.696 13.699l1.402-1.398-3.395-3.395-1.4 1.4 3.395 3.395zM5.702 12.301l8.6 8.6 3.395-3.395-8.6-8.6-3.395 3.395zM17.698 20.901l8.6-8.6-3.395-3.395-8.6 8.6 3.395 3.395zM22.902 12.301l1.4 1.4 3.395-3.395-1.4-1.4-3.395 3.395zM24.302 10.306l-10 10 3.395 3.395 10-10-3.395-3.395z"></path>
</symbol>
<symbol id="icon-close" viewBox="0 0 32 32">
<path fill="none" stroke="#fcfcfc" style="stroke: var(--color1, #fcfcfc)" stroke-linejoin="round" stroke-linecap="round" stroke-miterlimit="4" stroke-width="2.5" d="M24 8l-16 16"></path>
<path fill="none" stroke="#fcfcfc" style="stroke: var(--color1, #fcfcfc)" stroke-linejoin="round" stroke-linecap="round" stroke-miterlimit="4" stroke-width="2.5" d="M8 8l16 16"></path>
</symbol>
<symbol id="icon-first" viewBox="0 0 32 32">
<path d="M23.453 24l1.88-1.88-6.107-6.12 6.107-6.12-1.88-1.88-8 8 8 8z"></path>
<path d="M14.667 24l1.88-1.88-6.107-6.12 6.107-6.12-1.88-1.88-8 8 8 8z"></path>
</symbol>
<symbol id="icon-last" viewBox="0 0 32 32">
<path fill="#85aa9f" style="fill: var(--color1, #85aa9f)" d="M8.546 8l-1.88 1.88 6.107 6.12-6.107 6.12 1.88 1.88 8-8-8-8z"></path>
<path fill="#85aa9f" style="fill: var(--color1, #85aa9f)" d="M17.333 8l-1.88 1.88 6.107 6.12-6.107 6.12 1.88 1.88 8-8-8-8z"></path>
</symbol>
<symbol id="icon-prev" viewBox="0 0 32 32">
<path d="M20.12 24l1.88-1.88-6.107-6.12 6.107-6.12-1.88-1.88-8 8 8 8z"></path>
</symbol>
<symbol id="icon-next" viewBox="0 0 32 32">
<path d="M13.88 8l-1.88 1.88 6.107 6.12-6.107 6.12 1.88 1.88 8-8-8-8z"></path>
</symbol>
</defs>
</svg>
